<?xml version="1.0" standalone="no"?>
<!DOCTYPE svg PUBLIC "-//W3C//DTD SVG 20010904//EN"
 "http://www.w3.org/TR/2001/REC-SVG-20010904/DTD/svg10.dtd">
<svg version="1.0" xmlns="http://www.w3.org/2000/svg"
 width="200.000000pt" height="200.000000pt" viewBox="0 0 200.000000 200.000000"
 preserveAspectRatio="xMidYMid meet">
<metadata>
Created by potrace 1.11, written by Peter Selinger 2001-2013
</metadata>
<g transform="translate(0.000000,200.000000) scale(0.100000,-0.100000)"
fill="#000000" stroke="none">
<path d="M899 1966 c-2 -2 -31 -7 -64 -11 -32 -3 -67 -11 -77 -16 -10 -5 -18
-7 -18 -5 0 11 -147 -49 -215 -87 -331 -187 -518 -520 -500 -889 6 -116 7
-125 24 -188 37 -140 107 -276 199 -386 257 -306 659 -422 1051 -304 233 70
462 264 573 485 183 363 121 797 -157 1093 -143 154 -318 250 -540 297 -35 8
-269 17 -276 11z"/>
</g>
</svg>
